<?xml version="1.0" encoding="UTF-8" standalone="no"?>
<svg
   xmlns:dc="http://purl.org/dc/elements/1.1/"
   xmlns:cc="http://creativecommons.org/ns#"
   xmlns:rdf="http://www.w3.org/1999/02/22-rdf-syntax-ns#"
   xmlns:svg="http://www.w3.org/2000/svg"
   xmlns="http://www.w3.org/2000/svg"
   xmlns:sodipodi="http://sodipodi.sourceforge.net/DTD/sodipodi-0.dtd"
   xmlns:inkscape="http://www.inkscape.org/namespaces/inkscape"
   inkscape:export-ydpi="24.68"
   inkscape:export-xdpi="24.68"
   inkscape:export-filename="/Users/d059503/git/btp/docs/docs/theme/material/assets/btptour_logo.png"
   width="291.71429pt"
   height="356.95142pt"
   version="1.1"
   viewBox="0 0 291.71429 356.95142"
   id="svg835"
   sodipodi:docname="btptour_inverted.svg"
   inkscape:version="1.0beta2 (2b71d25, 2019-12-03)">
  <metadata
     id="metadata841">
    <rdf:RDF>
      <cc:Work
         rdf:about="">
        <dc:format>image/svg+xml</dc:format>
        <dc:type
           rdf:resource="http://purl.org/dc/dcmitype/StillImage" />
        <dc:title></dc:title>
      </cc:Work>
    </rdf:RDF>
  </metadata>
  <defs
     id="defs839" />
  <sodipodi:namedview
     pagecolor="#ffffff"
     bordercolor="#666666"
     inkscape:document-rotation="0"
     borderopacity="1"
     objecttolerance="10"
     gridtolerance="10"
     guidetolerance="10"
     inkscape:pageopacity="0"
     inkscape:pageshadow="2"
     inkscape:window-width="1456"
     inkscape:window-height="736"
     id="namedview837"
     showgrid="false"
     fit-margin-top="0"
     fit-margin-left="0"
     fit-margin-right="0"
     fit-margin-bottom="0"
     inkscape:zoom="0.5939697"
     inkscape:cx="-24.506526"
     inkscape:cy="232.59548"
     inkscape:window-x="163"
     inkscape:window-y="66"
     inkscape:window-maximized="0"
     inkscape:current-layer="svg835" />
  <path
     d="m 145.85714,0 c 80.47558,0 145.85715,65.38157 145.85715,145.85714 0,80.47558 -65.38157,145.85715 -145.85715,145.85715 C 65.381569,291.71429 0,226.33272 0,145.85714 0,65.38157 65.381569,0 145.85714,0 Z m 6.62987,14.088474 V 76.24351 h 46.92843 C 196.61736,66.75202 193.27011,58.00584 189.47064,50.34558 179.22252,29.6822 166.2067,17.174126 152.48701,14.088474 Z m -13.25974,0 c -13.7183,3.0851 -26.73412,15.593726 -36.98362,36.257106 -3.799471,7.66026 -7.146731,16.40644 -9.944811,25.89793 h 46.928431 z m 44.95881,4.868811 c 6.47131,7.019375 12.20449,15.627155 17.09263,25.483565 4.70169,9.47961 8.70502,20.19596 11.91305,31.80128 h 45.58036 C 241.94717,48.98894 215.51498,28.37999 184.18608,18.954522 Z m -76.65787,0 C 76.199309,28.38082 49.768229,48.9906 32.942169,76.24489 h 45.58035 C 81.729449,64.6382 85.733889,53.92184 90.435569,44.44361 95.323719,34.5872 101.0569,25.979422 107.52821,18.960047 Z M 265.92133,89.50463 h -49.51684 c 3.26742,15.41251 5.19892,32.18249 5.59395,49.72402 h 56.24892 c -0.86973,-17.73683 -5.17406,-34.50018 -12.32741,-49.72402 z m -63.08874,0 h -50.34558 v 49.72402 h 56.24893 c -0.42083,-17.70783 -2.49593,-34.52504 -5.90473,-49.72402 z m -63.60532,0 H 88.881699 c -3.40886,15.19787 -5.48401,32.01675 -5.90473,49.72402 h 56.248921 z m -63.917471,0 H 25.792957 C 18.639604,104.7293 14.33516,121.49099 13.465542,139.22865 h 56.248927 c 0.39494,-17.54042 2.3265,-34.31234 5.59395,-49.72402 z M 278.2446,152.48839 h -56.24892 c -0.38956,17.56971 -2.32109,34.30682 -5.59396,49.72403 h 49.51685 c 7.12959,-15.20202 11.45862,-32.01951 12.32741,-49.72403 z m -69.50866,0 h -56.24893 v 49.72403 h 50.34558 c 3.40996,-15.215 5.48926,-31.99741 5.90473,-49.72403 z m -69.50867,0 H 82.978349 c 0.41544,17.72717 2.49592,34.50848 5.90473,49.72403 h 50.345571 z m -69.508661,0 H 13.469686 c 0.868651,17.70342 5.197818,34.52229 12.327415,49.72403 h 49.516838 c -3.27405,-15.41693 -5.20444,-32.15487 -5.59395,-49.72403 z m 189.056271,62.98377 h -45.58036 c -3.20692,11.58929 -7.21136,22.21946 -11.91304,31.69907 -4.88926,9.8564 -10.62133,18.65286 -17.09264,25.69074 31.3289,-9.42353 57.75998,-30.13552 74.58604,-57.38981 z m -59.35944,0 h -46.92843 v 62.26001 c 13.71831,-3.084 26.73413,-15.69733 36.98363,-36.35932 3.81245,-7.68623 7.14037,-16.3697 9.9448,-25.89793 z m -60.18817,0 H 92.298839 c 2.80444,9.52823 6.13236,18.2117 9.944811,25.89793 10.24812,20.66337 23.26394,33.27642 36.98362,36.35931 z m -60.704751,0 h -45.58035 c 16.82495,27.25319 43.25714,47.96711 74.586041,57.38981 -6.47131,-7.03788 -12.204491,-15.83434 -17.092641,-25.69074 -4.70168,-9.47961 -8.70502,-20.10978 -11.91305,-31.69907 z"
     fill="#36c1c3"
     id="path833"
     inkscape:connector-curvature="0"
     style="stroke-width:0.276245" />
  <g
     aria-label="BTP Tour"
     id="text845"
     style="font-style:normal;font-weight:normal;font-size:56px;line-height:1.25;font-family:sans-serif;fill:#e6e6e6;fill-opacity:1;stroke:none;stroke-width:0.75"
     transform="matrix(1.2228864,0,0,1.2228864,-126.01775,-194.01626)">
    <path
       d="m 103.74609,411.47269 h 16.24219 q 6.94531,0 10.60938,2.43359 3.66406,2.40625 3.66406,7.24609 0,3.33594 -1.85938,5.57813 -1.83203,2.21484 -5.46875,3.00781 4.07422,0.54688 6.26172,2.95313 2.1875,2.3789 2.1875,6.34375 0,3.74609 -1.96875,6.20703 -1.96875,2.43359 -5.33203,3.60937 -3.33594,1.14844 -7.57422,1.14844 h -16.76172 z m 15.33985,15.28515 q 3.66406,0 5.35937,-1.12109 1.69532,-1.12109 1.69532,-3.41797 0,-2.37891 -1.61329,-3.39062 -1.61328,-1.03907 -4.92187,-1.03907 h -7.79297 v 8.96875 z m 0.73828,16.8711 q 3.5,0 5.46875,-1.17578 1.96875,-1.17579 1.96875,-4.10157 0,-2.76172 -1.94141,-3.9375 -1.9414,-1.20312 -5.22265,-1.20312 h -8.28516 v 10.41797 z"
       style="font-style:normal;font-variant:normal;font-weight:bold;font-stretch:normal;font-family:'72';-inkscape-font-specification:'72 Bold';stroke-width:0.75;fill:#e6e6e6"
       id="path847"
       inkscape:connector-curvature="0" />
    <path
       d="m 149.90234,418.25394 h -11.86718 v -6.78125 h 31.85546 v 6.78125 h -11.92187 v 31.74609 h -8.06641 z"
       style="font-style:normal;font-variant:normal;font-weight:bold;font-stretch:normal;font-family:'72';-inkscape-font-specification:'72 Bold';stroke-width:0.75;fill:#e6e6e6"
       id="path849"
       inkscape:connector-curvature="0" />
    <path
       d="m 174.29297,411.47269 h 17.30859 q 4.8125,0 8.01172,1.55859 3.22656,1.55859 4.78516,4.375 1.58593,2.81641 1.58593,6.61719 0,3.52734 -1.55859,6.48047 -1.53125,2.95312 -4.70312,4.73047 -3.14454,1.77734 -7.79297,1.77734 h -9.57032 v 12.98828 h -8.0664 z m 16.625,18.75781 q 3.47265,0 5.19531,-1.61328 1.75,-1.64063 1.75,-4.48438 0,-2.87109 -1.80469,-4.34765 -1.80468,-1.47657 -5.35937,-1.47657 h -8.33985 v 11.92188 z"
       style="font-style:normal;font-variant:normal;font-weight:bold;font-stretch:normal;font-family:'72';-inkscape-font-specification:'72 Bold';stroke-width:0.75;fill:#e6e6e6"
       id="path851"
       inkscape:connector-curvature="0" />
    <path
       d="m 234.99609,418.25394 h -11.86718 v -6.78125 h 31.85546 v 6.78125 H 243.0625 v 31.74609 h -8.06641 z"
       style="font-style:normal;font-variant:normal;font-weight:bold;font-stretch:normal;font-family:'72';-inkscape-font-specification:'72 Bold';stroke-width:0.75;fill:#e6e6e6"
       id="path853"
       inkscape:connector-curvature="0" />
    <path
       d="m 268.46484,450.54691 q -4.64843,0 -8.01172,-2.02344 -3.33593,-2.02344 -5.05859,-5.52344 -1.72266,-3.5 -1.72266,-7.84766 0,-4.23828 1.66797,-7.71093 1.69532,-3.47266 5.0586,-5.52344 3.36328,-2.05078 8.23047,-2.05078 5.11328,0 8.42187,2.05078 3.33594,2.02344 4.89453,5.46875 1.5586,3.41797 1.5586,7.76562 0,4.34766 -1.72266,7.84766 -1.69531,3.47266 -5.08594,5.52344 -3.39062,2.02344 -8.23047,2.02344 z m -0.082,-6.09766 q 3.41797,0 5.25,-2.40625 1.83203,-2.40625 1.83203,-6.89063 0,-4.42968 -1.72265,-6.80859 -1.72266,-2.37891 -5.00391,-2.37891 -3.39062,0 -5.19531,2.40625 -1.80469,2.37891 -1.80469,6.78125 0,2.92579 0.82031,5.03125 0.84766,2.07813 2.32422,3.17188 1.50391,1.09375 3.5,1.09375 z"
       style="font-style:normal;font-variant:normal;font-weight:bold;font-stretch:normal;font-family:'72';-inkscape-font-specification:'72 Bold';stroke-width:0.75;fill:#e6e6e6"
       id="path855"
       inkscape:connector-curvature="0" />
    <path
       d="m 298.92578,450.54691 q -5.05859,0 -7.41016,-3.0625 -2.32421,-3.08985 -2.32421,-8.28516 v -18.75781 h 7.68359 v 16.57031 q 0,3.30859 1.12109,5.14062 1.1211,1.80469 3.85547,1.80469 1.83203,0 3.3086,-0.95703 1.47656,-0.98437 2.32421,-2.73437 0.84766,-1.75 0.84766,-3.99219 v -15.83203 h 7.68359 v 22.9414 q 0,1.85938 0.0547,3.88282 0.082,1.99609 0.16406,2.73437 h -7.32812 q -0.082,-0.65625 -0.21875,-2.46094 -0.10938,-1.83203 -0.10938,-2.87109 h -0.13671 q -1.50391,3.03516 -3.88282,4.45703 -2.35156,1.42188 -5.63281,1.42188 z"
       style="font-style:normal;font-variant:normal;font-weight:bold;font-stretch:normal;font-family:'72';-inkscape-font-specification:'72 Bold';stroke-width:0.75;fill:#e6e6e6"
       id="path857"
       inkscape:connector-curvature="0" />
    <path
       d="m 323.86328,427.38675 q 0,-1.91406 -0.082,-4.07422 -0.0547,-2.1875 -0.13672,-2.87109 h 7.32813 q 0.10937,0.49218 0.21875,2.35156 0.13671,1.85937 0.13671,2.78906 h 0.10938 q 0.875,-2.07812 1.66797,-3.2539 0.79297,-1.17579 2.05078,-1.83204 1.25781,-0.68359 3.28125,-0.68359 0.73828,0 1.42187,0.13672 0.71094,0.13672 1.03907,0.32812 l -0.21875,6.64454 q -0.38282,-0.0547 -0.57422,-0.10938 -1.47656,-0.27344 -2.51563,-0.27344 -2.84375,0 -4.45703,2.32422 -1.58594,2.29688 -1.58594,6.64453 v 14.49219 h -7.68359 z"
       style="font-style:normal;font-variant:normal;font-weight:bold;font-stretch:normal;font-family:'72';-inkscape-font-specification:'72 Bold';stroke-width:0.75;fill:#e6e6e6"
       id="path859"
       inkscape:connector-curvature="0" />
  </g>
</svg>
