<?xml version="1.0" encoding="UTF-8" standalone="no"?>
<svg
   xmlns:dc="http://purl.org/dc/elements/1.1/"
   xmlns:cc="http://creativecommons.org/ns#"
   xmlns:rdf="http://www.w3.org/1999/02/22-rdf-syntax-ns#"
   xmlns:svg="http://www.w3.org/2000/svg"
   xmlns="http://www.w3.org/2000/svg"
   xmlns:sodipodi="http://sodipodi.sourceforge.net/DTD/sodipodi-0.dtd"
   xmlns:inkscape="http://www.inkscape.org/namespaces/inkscape"
   inkscape:export-ydpi="24.68"
   inkscape:export-xdpi="24.68"
   inkscape:export-filename="/Users/d059503/git/btp/docs/docs/theme/material/assets/btptour_logo.png"
   inkscape:version="1.0beta2 (2b71d25, 2019-12-03)"
   sodipodi:docname="favicon.svg"
   id="svg835"
   viewBox="0 0 291.71429 291.7143"
   version="1.1"
   height="291.71429pt"
   width="291.71429pt">
  <metadata
     id="metadata841">
    <rdf:RDF>
      <cc:Work
         rdf:about="">
        <dc:format>image/svg+xml</dc:format>
        <dc:type
           rdf:resource="http://purl.org/dc/dcmitype/StillImage" />
        <dc:title></dc:title>
      </cc:Work>
    </rdf:RDF>
  </metadata>
  <defs
     id="defs839" />
  <sodipodi:namedview
     inkscape:current-layer="svg835"
     inkscape:window-maximized="0"
     inkscape:window-y="94"
     inkscape:window-x="163"
     inkscape:cy="232.59548"
     inkscape:cx="299.58408"
     inkscape:zoom="0.5939697"
     fit-margin-bottom="0"
     fit-margin-right="0"
     fit-margin-left="0"
     fit-margin-top="0"
     showgrid="false"
     id="namedview837"
     inkscape:window-height="736"
     inkscape:window-width="1486"
     inkscape:pageshadow="2"
     inkscape:pageopacity="0"
     guidetolerance="10"
     gridtolerance="10"
     objecttolerance="10"
     borderopacity="1"
     inkscape:document-rotation="0"
     bordercolor="#666666"
     pagecolor="#ffffff" />
  <path
     inkscape:export-ydpi="7.8981395"
     inkscape:export-xdpi="7.8981395"
     style="stroke-width:0.276245"
     inkscape:connector-curvature="0"
     id="path833"
     fill="#36c1c3"
     d="m 145.85714,0 c 80.47558,0 145.85715,65.38157 145.85715,145.85714 0,80.47558 -65.38157,145.85715 -145.85715,145.85715 C 65.381569,291.71429 0,226.33272 0,145.85714 0,65.38157 65.381569,0 145.85714,0 Z m 6.62987,14.088474 V 76.24351 h 46.92843 C 196.61736,66.75202 193.27011,58.00584 189.47064,50.34558 179.22252,29.6822 166.2067,17.174126 152.48701,14.088474 Z m -13.25974,0 c -13.7183,3.0851 -26.73412,15.593726 -36.98362,36.257106 -3.799471,7.66026 -7.146731,16.40644 -9.944811,25.89793 h 46.928431 z m 44.95881,4.868811 c 6.47131,7.019375 12.20449,15.627155 17.09263,25.483565 4.70169,9.47961 8.70502,20.19596 11.91305,31.80128 h 45.58036 C 241.94717,48.98894 215.51498,28.37999 184.18608,18.954522 Z m -76.65787,0 C 76.199309,28.38082 49.768229,48.9906 32.942169,76.24489 h 45.58035 C 81.729449,64.6382 85.733889,53.92184 90.435569,44.44361 95.323719,34.5872 101.0569,25.979422 107.52821,18.960047 Z M 265.92133,89.50463 h -49.51684 c 3.26742,15.41251 5.19892,32.18249 5.59395,49.72402 h 56.24892 c -0.86973,-17.73683 -5.17406,-34.50018 -12.32741,-49.72402 z m -63.08874,0 h -50.34558 v 49.72402 h 56.24893 c -0.42083,-17.70783 -2.49593,-34.52504 -5.90473,-49.72402 z m -63.60532,0 H 88.881699 c -3.40886,15.19787 -5.48401,32.01675 -5.90473,49.72402 h 56.248921 z m -63.917471,0 H 25.792957 C 18.639604,104.7293 14.33516,121.49099 13.465542,139.22865 h 56.248927 c 0.39494,-17.54042 2.3265,-34.31234 5.59395,-49.72402 z M 278.2446,152.48839 h -56.24892 c -0.38956,17.56971 -2.32109,34.30682 -5.59396,49.72403 h 49.51685 c 7.12959,-15.20202 11.45862,-32.01951 12.32741,-49.72403 z m -69.50866,0 h -56.24893 v 49.72403 h 50.34558 c 3.40996,-15.215 5.48926,-31.99741 5.90473,-49.72403 z m -69.50867,0 H 82.978349 c 0.41544,17.72717 2.49592,34.50848 5.90473,49.72403 h 50.345571 z m -69.508661,0 H 13.469686 c 0.868651,17.70342 5.197818,34.52229 12.327415,49.72403 h 49.516838 c -3.27405,-15.41693 -5.20444,-32.15487 -5.59395,-49.72403 z m 189.056271,62.98377 h -45.58036 c -3.20692,11.58929 -7.21136,22.21946 -11.91304,31.69907 -4.88926,9.8564 -10.62133,18.65286 -17.09264,25.69074 31.3289,-9.42353 57.75998,-30.13552 74.58604,-57.38981 z m -59.35944,0 h -46.92843 v 62.26001 c 13.71831,-3.084 26.73413,-15.69733 36.98363,-36.35932 3.81245,-7.68623 7.14037,-16.3697 9.9448,-25.89793 z m -60.18817,0 H 92.298839 c 2.80444,9.52823 6.13236,18.2117 9.944811,25.89793 10.24812,20.66337 23.26394,33.27642 36.98362,36.35931 z m -60.704751,0 h -45.58035 c 16.82495,27.25319 43.25714,47.96711 74.586041,57.38981 -6.47131,-7.03788 -12.204491,-15.83434 -17.092641,-25.69074 -4.70168,-9.47961 -8.70502,-20.10978 -11.91305,-31.69907 z" />
</svg>
